<mxfile host="app.diagrams.net" agent="Mozilla/5.0 (Windows NT 10.0; Win64; x64) AppleWebKit/537.36 (KHTML, like Gecko) Chrome/128.0.0.0 Safari/537.36 OPR/114.0.0.0" version="24.9.0" pages="4">
  <diagram id="BFhmOi5wU_xgaNPKwpR2" name="Start Game Setup &amp; Player Introduction">
    <mxGraphModel dx="1568" dy="797" grid="1" gridSize="10" guides="1" tooltips="1" connect="1" arrows="1" fold="1" page="1" pageScale="1" pageWidth="1169" pageHeight="827" math="0" shadow="0">
      <root>
        <mxCell id="0" />
        <mxCell id="1" parent="0" />
        <mxCell id="CB8T1kKB-QZbDKMBK94T-1" style="edgeStyle=orthogonalEdgeStyle;rounded=0;orthogonalLoop=1;jettySize=auto;html=1;dashed=1;endArrow=none;endFill=0;" parent="1" edge="1">
          <mxGeometry relative="1" as="geometry">
            <mxPoint x="70" y="640" as="targetPoint" />
            <mxPoint x="70" y="190" as="sourcePoint" />
          </mxGeometry>
        </mxCell>
        <mxCell id="CB8T1kKB-QZbDKMBK94T-2" value=":GameSystem" style="shape=umlActor;verticalLabelPosition=bottom;verticalAlign=top;html=1;outlineConnect=0;" parent="1" vertex="1">
          <mxGeometry x="40" y="40" width="60" height="126" as="geometry" />
        </mxCell>
        <mxCell id="CB8T1kKB-QZbDKMBK94T-4" value=":GameSystem" style="html=1;whiteSpace=wrap;fontStyle=4;fontSize=17;horizontal=1;" parent="1" vertex="1">
          <mxGeometry x="230" y="88" width="120" height="30" as="geometry" />
        </mxCell>
        <mxCell id="CB8T1kKB-QZbDKMBK94T-5" style="edgeStyle=orthogonalEdgeStyle;rounded=0;orthogonalLoop=1;jettySize=auto;html=1;dashed=1;endArrow=none;endFill=0;exitX=0.5;exitY=1;exitDx=0;exitDy=0;" parent="1" source="0vsVzLCJRV0ue-xMrHIm-22" edge="1">
          <mxGeometry relative="1" as="geometry">
            <mxPoint x="280" y="640" as="targetPoint" />
            <mxPoint x="280" y="136" as="sourcePoint" />
            <Array as="points">
              <mxPoint x="280" y="426" />
            </Array>
          </mxGeometry>
        </mxCell>
        <mxCell id="CB8T1kKB-QZbDKMBK94T-7" value="" style="edgeStyle=orthogonalEdgeStyle;rounded=0;orthogonalLoop=1;jettySize=auto;html=1;dashed=1;endArrow=none;endFill=0;exitX=0.5;exitY=1;exitDx=0;exitDy=0;" parent="1" source="CB8T1kKB-QZbDKMBK94T-4" edge="1">
          <mxGeometry relative="1" as="geometry">
            <mxPoint x="280" y="216" as="targetPoint" />
            <mxPoint x="280" y="76" as="sourcePoint" />
            <Array as="points">
              <mxPoint x="280" y="226" />
              <mxPoint x="280" y="226" />
            </Array>
          </mxGeometry>
        </mxCell>
        <mxCell id="0vsVzLCJRV0ue-xMrHIm-4" value="" style="endArrow=classic;html=1;rounded=0;" parent="1" target="0vsVzLCJRV0ue-xMrHIm-3" edge="1">
          <mxGeometry width="50" height="50" relative="1" as="geometry">
            <mxPoint x="70" y="220" as="sourcePoint" />
            <mxPoint x="160" y="220" as="targetPoint" />
          </mxGeometry>
        </mxCell>
        <mxCell id="0vsVzLCJRV0ue-xMrHIm-12" value="playTutorial()" style="edgeLabel;html=1;align=center;verticalAlign=middle;resizable=0;points=[];" parent="0vsVzLCJRV0ue-xMrHIm-4" vertex="1" connectable="0">
          <mxGeometry x="-0.0193" relative="1" as="geometry">
            <mxPoint y="-10" as="offset" />
          </mxGeometry>
        </mxCell>
        <mxCell id="0vsVzLCJRV0ue-xMrHIm-19" value="" style="endArrow=classic;html=1;rounded=0;entryX=0;entryY=0;entryDx=0;entryDy=5;entryPerimeter=0;" parent="1" edge="1">
          <mxGeometry width="50" height="50" relative="1" as="geometry">
            <mxPoint x="70" y="340" as="sourcePoint" />
            <mxPoint x="275" y="341" as="targetPoint" />
          </mxGeometry>
        </mxCell>
        <mxCell id="0vsVzLCJRV0ue-xMrHIm-20" value="getTurnOrder()" style="edgeLabel;html=1;align=center;verticalAlign=middle;resizable=0;points=[];" parent="0vsVzLCJRV0ue-xMrHIm-19" vertex="1" connectable="0">
          <mxGeometry x="-0.0193" relative="1" as="geometry">
            <mxPoint y="-10" as="offset" />
          </mxGeometry>
        </mxCell>
        <mxCell id="0vsVzLCJRV0ue-xMrHIm-23" value="" style="edgeStyle=orthogonalEdgeStyle;rounded=0;orthogonalLoop=1;jettySize=auto;html=1;dashed=1;endArrow=none;endFill=0;exitX=0.5;exitY=1;exitDx=0;exitDy=0;" parent="1" target="0vsVzLCJRV0ue-xMrHIm-22" edge="1">
          <mxGeometry relative="1" as="geometry">
            <mxPoint x="280" y="480" as="targetPoint" />
            <mxPoint x="280" y="136" as="sourcePoint" />
            <Array as="points">
              <mxPoint x="280" y="260" />
              <mxPoint x="280" y="260" />
            </Array>
          </mxGeometry>
        </mxCell>
        <mxCell id="0vsVzLCJRV0ue-xMrHIm-22" value="" style="html=1;points=[[0,0,0,0,5],[0,1,0,0,-5],[1,0,0,0,5],[1,1,0,0,-5]];perimeter=orthogonalPerimeter;outlineConnect=0;targetShapes=umlLifeline;portConstraint=eastwest;newEdgeStyle={&quot;curved&quot;:0,&quot;rounded&quot;:0};" parent="1" vertex="1">
          <mxGeometry x="275" y="330" width="10" height="80" as="geometry" />
        </mxCell>
        <mxCell id="0vsVzLCJRV0ue-xMrHIm-3" value="" style="html=1;points=[[0,0,0,0,5],[0,1,0,0,-5],[1,0,0,0,5],[1,1,0,0,-5]];perimeter=orthogonalPerimeter;outlineConnect=0;targetShapes=umlLifeline;portConstraint=eastwest;newEdgeStyle={&quot;curved&quot;:0,&quot;rounded&quot;:0};" parent="1" vertex="1">
          <mxGeometry x="275" y="210" width="10" height="80" as="geometry" />
        </mxCell>
        <mxCell id="0vsVzLCJRV0ue-xMrHIm-24" value="" style="endArrow=classic;html=1;rounded=0;entryX=0;entryY=0;entryDx=0;entryDy=5;entryPerimeter=0;" parent="1" edge="1">
          <mxGeometry width="50" height="50" relative="1" as="geometry">
            <mxPoint x="70" y="460" as="sourcePoint" />
            <mxPoint x="275" y="461" as="targetPoint" />
          </mxGeometry>
        </mxCell>
        <mxCell id="0vsVzLCJRV0ue-xMrHIm-25" value="initialise()" style="edgeLabel;html=1;align=center;verticalAlign=middle;resizable=0;points=[];" parent="0vsVzLCJRV0ue-xMrHIm-24" vertex="1" connectable="0">
          <mxGeometry x="-0.0193" relative="1" as="geometry">
            <mxPoint y="-10" as="offset" />
          </mxGeometry>
        </mxCell>
        <mxCell id="0vsVzLCJRV0ue-xMrHIm-27" value="" style="html=1;points=[[0,0,0,0,5],[0,1,0,0,-5],[1,0,0,0,5],[1,1,0,0,-5]];perimeter=orthogonalPerimeter;outlineConnect=0;targetShapes=umlLifeline;portConstraint=eastwest;newEdgeStyle={&quot;curved&quot;:0,&quot;rounded&quot;:0};" parent="1" vertex="1">
          <mxGeometry x="275" y="450" width="10" height="140" as="geometry" />
        </mxCell>
        <mxCell id="Nckeg02XJ0LHELRJPL2k-1" value=":BoardGameUI" style="html=1;whiteSpace=wrap;fontStyle=4;fontSize=17;horizontal=1;" parent="1" vertex="1">
          <mxGeometry x="400" y="88" width="120" height="30" as="geometry" />
        </mxCell>
        <mxCell id="Nckeg02XJ0LHELRJPL2k-2" value="" style="endArrow=classic;html=1;rounded=0;" parent="1" edge="1" target="Nckeg02XJ0LHELRJPL2k-6">
          <mxGeometry width="50" height="50" relative="1" as="geometry">
            <mxPoint x="285" y="230" as="sourcePoint" />
            <mxPoint x="450" y="230" as="targetPoint" />
          </mxGeometry>
        </mxCell>
        <mxCell id="Nckeg02XJ0LHELRJPL2k-3" value="displayTutorial()" style="edgeLabel;html=1;align=center;verticalAlign=middle;resizable=0;points=[];strokeColor=#FF7575;fillColor=#FF6666;" parent="Nckeg02XJ0LHELRJPL2k-2" vertex="1" connectable="0">
          <mxGeometry x="-0.0193" relative="1" as="geometry">
            <mxPoint y="-10" as="offset" />
          </mxGeometry>
        </mxCell>
        <mxCell id="Nckeg02XJ0LHELRJPL2k-8" value="" style="edgeStyle=orthogonalEdgeStyle;rounded=0;orthogonalLoop=1;jettySize=auto;html=1;dashed=1;endArrow=none;endFill=0;exitX=0.5;exitY=1;exitDx=0;exitDy=0;" parent="1" edge="1">
          <mxGeometry relative="1" as="geometry">
            <mxPoint x="460" y="640" as="targetPoint" />
            <mxPoint x="459.65999999999997" y="118" as="sourcePoint" />
            <Array as="points">
              <mxPoint x="460" y="210" />
              <mxPoint x="460" y="210" />
            </Array>
          </mxGeometry>
        </mxCell>
        <mxCell id="Nckeg02XJ0LHELRJPL2k-6" value="" style="html=1;points=[[0,0,0,0,5],[0,1,0,0,-5],[1,0,0,0,5],[1,1,0,0,-5]];perimeter=orthogonalPerimeter;outlineConnect=0;targetShapes=umlLifeline;portConstraint=eastwest;newEdgeStyle={&quot;curved&quot;:0,&quot;rounded&quot;:0};" parent="1" vertex="1">
          <mxGeometry x="455" y="220" width="10" height="50" as="geometry" />
        </mxCell>
        <mxCell id="Nckeg02XJ0LHELRJPL2k-11" value=":Player" style="html=1;whiteSpace=wrap;fontStyle=4;fontSize=17;horizontal=1;" parent="1" vertex="1">
          <mxGeometry x="590" y="88" width="120" height="30" as="geometry" />
        </mxCell>
        <mxCell id="Nckeg02XJ0LHELRJPL2k-12" value="" style="edgeStyle=orthogonalEdgeStyle;rounded=0;orthogonalLoop=1;jettySize=auto;html=1;dashed=1;endArrow=none;endFill=0;exitX=0.5;exitY=1;exitDx=0;exitDy=0;" parent="1" edge="1">
          <mxGeometry relative="1" as="geometry">
            <mxPoint x="650" y="640" as="targetPoint" />
            <mxPoint x="649.66" y="118" as="sourcePoint" />
            <Array as="points">
              <mxPoint x="650" y="210" />
              <mxPoint x="650" y="210" />
            </Array>
          </mxGeometry>
        </mxCell>
        <mxCell id="Nckeg02XJ0LHELRJPL2k-13" value="" style="html=1;points=[[0,0,0,0,5],[0,1,0,0,-5],[1,0,0,0,5],[1,1,0,0,-5]];perimeter=orthogonalPerimeter;outlineConnect=0;targetShapes=umlLifeline;portConstraint=eastwest;newEdgeStyle={&quot;curved&quot;:0,&quot;rounded&quot;:0};" parent="1" vertex="1">
          <mxGeometry x="645" y="350" width="10" height="50" as="geometry" />
        </mxCell>
        <mxCell id="Nckeg02XJ0LHELRJPL2k-14" value="" style="endArrow=classic;html=1;rounded=0;" parent="1" edge="1">
          <mxGeometry width="50" height="50" relative="1" as="geometry">
            <mxPoint x="285" y="360" as="sourcePoint" />
            <mxPoint x="645" y="360" as="targetPoint" />
          </mxGeometry>
        </mxCell>
        <mxCell id="Nckeg02XJ0LHELRJPL2k-15" value="*rollDie()" style="edgeLabel;html=1;align=center;verticalAlign=middle;resizable=0;points=[];" parent="Nckeg02XJ0LHELRJPL2k-14" vertex="1" connectable="0">
          <mxGeometry x="-0.0193" relative="1" as="geometry">
            <mxPoint y="-10" as="offset" />
          </mxGeometry>
        </mxCell>
        <mxCell id="Nckeg02XJ0LHELRJPL2k-18" value=":Board" style="html=1;whiteSpace=wrap;fontStyle=4;fontSize=17;horizontal=1;" parent="1" vertex="1">
          <mxGeometry x="780" y="88" width="120" height="30" as="geometry" />
        </mxCell>
        <mxCell id="Nckeg02XJ0LHELRJPL2k-19" value="" style="edgeStyle=orthogonalEdgeStyle;rounded=0;orthogonalLoop=1;jettySize=auto;html=1;dashed=1;endArrow=none;endFill=0;" parent="1" edge="1">
          <mxGeometry relative="1" as="geometry">
            <mxPoint x="840" y="640" as="targetPoint" />
            <mxPoint x="840" y="120" as="sourcePoint" />
            <Array as="points">
              <mxPoint x="839.66" y="120" />
              <mxPoint x="839.66" y="120" />
            </Array>
          </mxGeometry>
        </mxCell>
        <mxCell id="Nckeg02XJ0LHELRJPL2k-20" value="" style="html=1;points=[[0,0,0,0,5],[0,1,0,0,-5],[1,0,0,0,5],[1,1,0,0,-5]];perimeter=orthogonalPerimeter;outlineConnect=0;targetShapes=umlLifeline;portConstraint=eastwest;newEdgeStyle={&quot;curved&quot;:0,&quot;rounded&quot;:0};" parent="1" vertex="1">
          <mxGeometry x="835" y="460" width="10" height="110" as="geometry" />
        </mxCell>
        <mxCell id="Nckeg02XJ0LHELRJPL2k-22" value="" style="endArrow=classic;html=1;rounded=0;" parent="1" edge="1">
          <mxGeometry width="50" height="50" relative="1" as="geometry">
            <mxPoint x="285" y="469.32000000000005" as="sourcePoint" />
            <mxPoint x="835" y="469.32000000000005" as="targetPoint" />
          </mxGeometry>
        </mxCell>
        <mxCell id="Nckeg02XJ0LHELRJPL2k-23" value="generateBoardSquares()" style="edgeLabel;html=1;align=center;verticalAlign=middle;resizable=0;points=[];" parent="Nckeg02XJ0LHELRJPL2k-22" vertex="1" connectable="0">
          <mxGeometry x="-0.0193" relative="1" as="geometry">
            <mxPoint y="-10" as="offset" />
          </mxGeometry>
        </mxCell>
        <mxCell id="Nckeg02XJ0LHELRJPL2k-27" value="" style="endArrow=classic;html=1;rounded=0;" parent="1" edge="1">
          <mxGeometry width="50" height="50" relative="1" as="geometry">
            <mxPoint x="285" y="534.66" as="sourcePoint" />
            <mxPoint x="835" y="534.66" as="targetPoint" />
          </mxGeometry>
        </mxCell>
        <mxCell id="Nckeg02XJ0LHELRJPL2k-28" value="updateBoardDisplay()" style="edgeLabel;html=1;align=center;verticalAlign=middle;resizable=0;points=[];" parent="Nckeg02XJ0LHELRJPL2k-27" vertex="1" connectable="0">
          <mxGeometry x="-0.0193" relative="1" as="geometry">
            <mxPoint y="-10" as="offset" />
          </mxGeometry>
        </mxCell>
        <mxCell id="0EaGILhdGWdBPfuvwY8q-1" value="" style="html=1;verticalAlign=bottom;endArrow=open;dashed=1;endSize=8;curved=0;rounded=0;" edge="1" parent="1" target="0vsVzLCJRV0ue-xMrHIm-3">
          <mxGeometry relative="1" as="geometry">
            <mxPoint x="310" y="270" as="targetPoint" />
            <mxPoint x="455" y="270" as="sourcePoint" />
          </mxGeometry>
        </mxCell>
        <mxCell id="0EaGILhdGWdBPfuvwY8q-3" value="" style="html=1;verticalAlign=bottom;endArrow=open;dashed=1;endSize=8;curved=0;rounded=0;" edge="1" parent="1" source="0vsVzLCJRV0ue-xMrHIm-3">
          <mxGeometry relative="1" as="geometry">
            <mxPoint x="70" y="290" as="targetPoint" />
            <mxPoint x="270" y="290" as="sourcePoint" />
          </mxGeometry>
        </mxCell>
        <mxCell id="0EaGILhdGWdBPfuvwY8q-4" value="" style="html=1;verticalAlign=bottom;endArrow=open;dashed=1;endSize=8;curved=0;rounded=0;" edge="1" parent="1">
          <mxGeometry relative="1" as="geometry">
            <mxPoint x="285" y="390" as="targetPoint" />
            <mxPoint x="645" y="390" as="sourcePoint" />
          </mxGeometry>
        </mxCell>
        <mxCell id="0EaGILhdGWdBPfuvwY8q-5" value="" style="html=1;verticalAlign=bottom;endArrow=open;dashed=1;endSize=8;curved=0;rounded=0;" edge="1" parent="1" source="0vsVzLCJRV0ue-xMrHIm-22">
          <mxGeometry relative="1" as="geometry">
            <mxPoint x="70" y="410" as="targetPoint" />
            <mxPoint x="260" y="410" as="sourcePoint" />
          </mxGeometry>
        </mxCell>
        <mxCell id="0EaGILhdGWdBPfuvwY8q-6" value="" style="html=1;verticalAlign=bottom;endArrow=open;dashed=1;endSize=8;curved=0;rounded=0;exitX=0.5;exitY=0.364;exitDx=0;exitDy=0;exitPerimeter=0;" edge="1" parent="1" target="0vsVzLCJRV0ue-xMrHIm-27">
          <mxGeometry relative="1" as="geometry">
            <mxPoint x="310" y="500" as="targetPoint" />
            <mxPoint x="835" y="500.03999999999996" as="sourcePoint" />
            <Array as="points">
              <mxPoint x="335" y="500" />
            </Array>
          </mxGeometry>
        </mxCell>
        <mxCell id="0EaGILhdGWdBPfuvwY8q-7" value="" style="html=1;verticalAlign=bottom;endArrow=open;dashed=1;endSize=8;curved=0;rounded=0;exitX=0.5;exitY=0.364;exitDx=0;exitDy=0;exitPerimeter=0;" edge="1" parent="1">
          <mxGeometry relative="1" as="geometry">
            <mxPoint x="285" y="560" as="targetPoint" />
            <mxPoint x="835" y="560.04" as="sourcePoint" />
            <Array as="points">
              <mxPoint x="335" y="560" />
            </Array>
          </mxGeometry>
        </mxCell>
        <mxCell id="0EaGILhdGWdBPfuvwY8q-8" value="" style="html=1;verticalAlign=bottom;endArrow=open;dashed=1;endSize=8;curved=0;rounded=0;" edge="1" parent="1">
          <mxGeometry relative="1" as="geometry">
            <mxPoint x="70" y="580" as="targetPoint" />
            <mxPoint x="275" y="580" as="sourcePoint" />
          </mxGeometry>
        </mxCell>
      </root>
    </mxGraphModel>
  </diagram>
  <diagram id="1gTBsRZRr8wAKN8Hd8PT" name="Resolve End of Round">
    <mxGraphModel dx="1568" dy="797" grid="1" gridSize="10" guides="1" tooltips="1" connect="1" arrows="1" fold="1" page="1" pageScale="1" pageWidth="1169" pageHeight="827" math="0" shadow="0">
      <root>
        <mxCell id="0" />
        <mxCell id="1" parent="0" />
        <mxCell id="EyYJ2yW6J9hGM3Kc2w8u-1" style="edgeStyle=orthogonalEdgeStyle;rounded=0;orthogonalLoop=1;jettySize=auto;html=1;dashed=1;endArrow=none;endFill=0;" parent="1" edge="1">
          <mxGeometry relative="1" as="geometry">
            <mxPoint x="80" y="440" as="targetPoint" />
            <mxPoint x="80" y="190" as="sourcePoint" />
          </mxGeometry>
        </mxCell>
        <mxCell id="EyYJ2yW6J9hGM3Kc2w8u-2" value=":Player" style="shape=umlActor;verticalLabelPosition=bottom;verticalAlign=top;html=1;outlineConnect=0;" parent="1" vertex="1">
          <mxGeometry x="50" y="40" width="60" height="126" as="geometry" />
        </mxCell>
        <mxCell id="EyYJ2yW6J9hGM3Kc2w8u-3" value=":GameSystem" style="html=1;whiteSpace=wrap;fontStyle=4;fontSize=17;horizontal=1;" parent="1" vertex="1">
          <mxGeometry x="240" y="88" width="120" height="30" as="geometry" />
        </mxCell>
        <mxCell id="EyYJ2yW6J9hGM3Kc2w8u-4" value="" style="edgeStyle=orthogonalEdgeStyle;rounded=0;orthogonalLoop=1;jettySize=auto;html=1;dashed=1;endArrow=none;endFill=0;exitX=0.5;exitY=1;exitDx=0;exitDy=0;" parent="1" source="EyYJ2yW6J9hGM3Kc2w8u-3" edge="1">
          <mxGeometry relative="1" as="geometry">
            <mxPoint x="290" y="216" as="targetPoint" />
            <mxPoint x="290" y="76" as="sourcePoint" />
            <Array as="points">
              <mxPoint x="290" y="226" />
              <mxPoint x="290" y="226" />
            </Array>
          </mxGeometry>
        </mxCell>
        <mxCell id="EyYJ2yW6J9hGM3Kc2w8u-5" value="" style="endArrow=classic;html=1;rounded=0;" parent="1" target="EyYJ2yW6J9hGM3Kc2w8u-9" edge="1">
          <mxGeometry width="50" height="50" relative="1" as="geometry">
            <mxPoint x="80" y="220" as="sourcePoint" />
            <mxPoint x="170" y="220" as="targetPoint" />
          </mxGeometry>
        </mxCell>
        <mxCell id="EyYJ2yW6J9hGM3Kc2w8u-6" value="endRound()" style="edgeLabel;html=1;align=center;verticalAlign=middle;resizable=0;points=[];" parent="EyYJ2yW6J9hGM3Kc2w8u-5" vertex="1" connectable="0">
          <mxGeometry x="-0.0193" relative="1" as="geometry">
            <mxPoint y="-10" as="offset" />
          </mxGeometry>
        </mxCell>
        <mxCell id="EyYJ2yW6J9hGM3Kc2w8u-8" value="" style="edgeStyle=orthogonalEdgeStyle;rounded=0;orthogonalLoop=1;jettySize=auto;html=1;dashed=1;endArrow=none;endFill=0;exitX=0.5;exitY=1;exitDx=0;exitDy=0;" parent="1" edge="1">
          <mxGeometry relative="1" as="geometry">
            <mxPoint x="290" y="440" as="targetPoint" />
            <mxPoint x="290" y="136" as="sourcePoint" />
            <Array as="points">
              <mxPoint x="290" y="260" />
              <mxPoint x="290" y="260" />
            </Array>
          </mxGeometry>
        </mxCell>
        <mxCell id="EyYJ2yW6J9hGM3Kc2w8u-9" value="" style="html=1;points=[[0,0,0,0,5],[0,1,0,0,-5],[1,0,0,0,5],[1,1,0,0,-5]];perimeter=orthogonalPerimeter;outlineConnect=0;targetShapes=umlLifeline;portConstraint=eastwest;newEdgeStyle={&quot;curved&quot;:0,&quot;rounded&quot;:0};" parent="1" vertex="1">
          <mxGeometry x="285" y="210" width="10" height="180" as="geometry" />
        </mxCell>
        <mxCell id="EyYJ2yW6J9hGM3Kc2w8u-10" value="" style="endArrow=classic;html=1;rounded=0;" parent="1" target="EyYJ2yW6J9hGM3Kc2w8u-14" edge="1">
          <mxGeometry width="50" height="50" relative="1" as="geometry">
            <mxPoint x="295" y="230" as="sourcePoint" />
            <mxPoint x="385" y="230" as="targetPoint" />
          </mxGeometry>
        </mxCell>
        <mxCell id="EyYJ2yW6J9hGM3Kc2w8u-11" value="generateMoreSquares()" style="edgeLabel;html=1;align=center;verticalAlign=middle;resizable=0;points=[];" parent="EyYJ2yW6J9hGM3Kc2w8u-10" vertex="1" connectable="0">
          <mxGeometry x="-0.0193" relative="1" as="geometry">
            <mxPoint y="-10" as="offset" />
          </mxGeometry>
        </mxCell>
        <mxCell id="EyYJ2yW6J9hGM3Kc2w8u-12" value=":Board" style="html=1;whiteSpace=wrap;fontStyle=4;fontSize=17;horizontal=1;" parent="1" vertex="1">
          <mxGeometry x="455" y="88" width="100" height="30" as="geometry" />
        </mxCell>
        <mxCell id="EyYJ2yW6J9hGM3Kc2w8u-13" value="" style="edgeStyle=orthogonalEdgeStyle;rounded=0;orthogonalLoop=1;jettySize=auto;html=1;dashed=1;endArrow=none;endFill=0;exitX=0.5;exitY=1;exitDx=0;exitDy=0;" parent="1" edge="1">
          <mxGeometry relative="1" as="geometry">
            <mxPoint x="505" y="440" as="targetPoint" />
            <mxPoint x="504.71000000000004" y="118" as="sourcePoint" />
            <Array as="points">
              <mxPoint x="504.71000000000004" y="242" />
              <mxPoint x="504.71000000000004" y="242" />
            </Array>
          </mxGeometry>
        </mxCell>
        <mxCell id="EyYJ2yW6J9hGM3Kc2w8u-14" value="" style="html=1;points=[[0,0,0,0,5],[0,1,0,0,-5],[1,0,0,0,5],[1,1,0,0,-5]];perimeter=orthogonalPerimeter;outlineConnect=0;targetShapes=umlLifeline;portConstraint=eastwest;newEdgeStyle={&quot;curved&quot;:0,&quot;rounded&quot;:0};" parent="1" vertex="1">
          <mxGeometry x="500" y="220" width="10" height="150" as="geometry" />
        </mxCell>
        <mxCell id="3tpPP3syLz1Yh3ShNfxO-2" value=":Pothole" style="html=1;whiteSpace=wrap;fontStyle=4;fontSize=17;horizontal=1;" parent="1" vertex="1">
          <mxGeometry x="640" y="88" width="100" height="30" as="geometry" />
        </mxCell>
        <mxCell id="3tpPP3syLz1Yh3ShNfxO-3" value="" style="edgeStyle=orthogonalEdgeStyle;rounded=0;orthogonalLoop=1;jettySize=auto;html=1;dashed=1;endArrow=none;endFill=0;exitX=0.5;exitY=1;exitDx=0;exitDy=0;" parent="1" edge="1">
          <mxGeometry relative="1" as="geometry">
            <mxPoint x="690" y="440" as="targetPoint" />
            <mxPoint x="689.71" y="118" as="sourcePoint" />
            <Array as="points">
              <mxPoint x="689.71" y="242" />
              <mxPoint x="689.71" y="242" />
            </Array>
          </mxGeometry>
        </mxCell>
        <mxCell id="3tpPP3syLz1Yh3ShNfxO-4" value="" style="html=1;points=[[0,0,0,0,5],[0,1,0,0,-5],[1,0,0,0,5],[1,1,0,0,-5]];perimeter=orthogonalPerimeter;outlineConnect=0;targetShapes=umlLifeline;portConstraint=eastwest;newEdgeStyle={&quot;curved&quot;:0,&quot;rounded&quot;:0};" parent="1" vertex="1">
          <mxGeometry x="685" y="250" width="10" height="50" as="geometry" />
        </mxCell>
        <mxCell id="3tpPP3syLz1Yh3ShNfxO-5" value="" style="endArrow=classic;html=1;rounded=0;" parent="1" edge="1">
          <mxGeometry width="50" height="50" relative="1" as="geometry">
            <mxPoint x="510" y="254.66" as="sourcePoint" />
            <mxPoint x="685" y="254.66" as="targetPoint" />
          </mxGeometry>
        </mxCell>
        <mxCell id="3tpPP3syLz1Yh3ShNfxO-6" value="increasePotholeSize()" style="edgeLabel;html=1;align=center;verticalAlign=middle;resizable=0;points=[];" parent="3tpPP3syLz1Yh3ShNfxO-5" vertex="1" connectable="0">
          <mxGeometry x="-0.0193" relative="1" as="geometry">
            <mxPoint y="-10" as="offset" />
          </mxGeometry>
        </mxCell>
        <mxCell id="3tpPP3syLz1Yh3ShNfxO-11" value="" style="endArrow=classic;html=1;rounded=0;" parent="1" edge="1">
          <mxGeometry width="50" height="50" relative="1" as="geometry">
            <mxPoint x="295" y="330" as="sourcePoint" />
            <mxPoint x="500" y="330" as="targetPoint" />
          </mxGeometry>
        </mxCell>
        <mxCell id="3tpPP3syLz1Yh3ShNfxO-12" value="updateBoardDisplay()" style="edgeLabel;html=1;align=center;verticalAlign=middle;resizable=0;points=[];" parent="3tpPP3syLz1Yh3ShNfxO-11" vertex="1" connectable="0">
          <mxGeometry x="-0.0193" relative="1" as="geometry">
            <mxPoint y="-10" as="offset" />
          </mxGeometry>
        </mxCell>
        <mxCell id="cSmAuIlRUAFHHIZZqVkZ-1" value="" style="html=1;verticalAlign=bottom;endArrow=open;dashed=1;endSize=8;curved=0;rounded=0;" edge="1" parent="1" target="EyYJ2yW6J9hGM3Kc2w8u-14">
          <mxGeometry relative="1" as="geometry">
            <mxPoint x="550" y="290" as="targetPoint" />
            <mxPoint x="685" y="290" as="sourcePoint" />
          </mxGeometry>
        </mxCell>
        <mxCell id="cSmAuIlRUAFHHIZZqVkZ-2" value="" style="html=1;verticalAlign=bottom;endArrow=open;dashed=1;endSize=8;curved=0;rounded=0;" edge="1" parent="1">
          <mxGeometry relative="1" as="geometry">
            <mxPoint x="295" y="299.66" as="targetPoint" />
            <mxPoint x="500" y="299.66" as="sourcePoint" />
          </mxGeometry>
        </mxCell>
        <mxCell id="cSmAuIlRUAFHHIZZqVkZ-3" value="" style="html=1;verticalAlign=bottom;endArrow=open;dashed=1;endSize=8;curved=0;rounded=0;" edge="1" parent="1">
          <mxGeometry relative="1" as="geometry">
            <mxPoint x="295" y="360" as="targetPoint" />
            <mxPoint x="500" y="360" as="sourcePoint" />
          </mxGeometry>
        </mxCell>
        <mxCell id="cSmAuIlRUAFHHIZZqVkZ-4" value="" style="html=1;verticalAlign=bottom;endArrow=open;dashed=1;endSize=8;curved=0;rounded=0;" edge="1" parent="1">
          <mxGeometry relative="1" as="geometry">
            <mxPoint x="80" y="380" as="targetPoint" />
            <mxPoint x="285" y="380" as="sourcePoint" />
          </mxGeometry>
        </mxCell>
      </root>
    </mxGraphModel>
  </diagram>
  <diagram id="SiPAjbxsBSBmqvlJHXYI" name="Declare game winner">
    <mxGraphModel dx="1299" dy="661" grid="1" gridSize="10" guides="1" tooltips="1" connect="1" arrows="1" fold="1" page="1" pageScale="1" pageWidth="1169" pageHeight="827" math="0" shadow="0">
      <root>
        <mxCell id="0" />
        <mxCell id="1" parent="0" />
        <mxCell id="mCKuifK9pSoZSj8asz60-1" style="edgeStyle=orthogonalEdgeStyle;rounded=0;orthogonalLoop=1;jettySize=auto;html=1;dashed=1;endArrow=none;endFill=0;" parent="1" edge="1">
          <mxGeometry relative="1" as="geometry">
            <mxPoint x="80" y="400" as="targetPoint" />
            <mxPoint x="80" y="190" as="sourcePoint" />
          </mxGeometry>
        </mxCell>
        <mxCell id="mCKuifK9pSoZSj8asz60-2" value=":GameSystem" style="shape=umlActor;verticalLabelPosition=bottom;verticalAlign=top;html=1;outlineConnect=0;" parent="1" vertex="1">
          <mxGeometry x="50" y="40" width="60" height="126" as="geometry" />
        </mxCell>
        <mxCell id="mCKuifK9pSoZSj8asz60-3" value=":BoardGameUI" style="html=1;whiteSpace=wrap;fontStyle=4;fontSize=17;horizontal=1;" parent="1" vertex="1">
          <mxGeometry x="230" y="88" width="120" height="30" as="geometry" />
        </mxCell>
        <mxCell id="mCKuifK9pSoZSj8asz60-4" value="" style="edgeStyle=orthogonalEdgeStyle;rounded=0;orthogonalLoop=1;jettySize=auto;html=1;dashed=1;endArrow=none;endFill=0;exitX=0.5;exitY=1;exitDx=0;exitDy=0;" parent="1" source="mCKuifK9pSoZSj8asz60-3" edge="1">
          <mxGeometry relative="1" as="geometry">
            <mxPoint x="290" y="216" as="targetPoint" />
            <mxPoint x="290" y="76" as="sourcePoint" />
            <Array as="points">
              <mxPoint x="290" y="226" />
              <mxPoint x="290" y="226" />
            </Array>
          </mxGeometry>
        </mxCell>
        <mxCell id="mCKuifK9pSoZSj8asz60-5" value="" style="endArrow=classic;html=1;rounded=0;" parent="1" target="mCKuifK9pSoZSj8asz60-9" edge="1">
          <mxGeometry width="50" height="50" relative="1" as="geometry">
            <mxPoint x="80" y="220" as="sourcePoint" />
            <mxPoint x="170" y="220" as="targetPoint" />
          </mxGeometry>
        </mxCell>
        <mxCell id="mCKuifK9pSoZSj8asz60-6" value="declareWinner()" style="edgeLabel;html=1;align=center;verticalAlign=middle;resizable=0;points=[];" parent="mCKuifK9pSoZSj8asz60-5" vertex="1" connectable="0">
          <mxGeometry x="-0.0193" relative="1" as="geometry">
            <mxPoint y="-10" as="offset" />
          </mxGeometry>
        </mxCell>
        <mxCell id="mCKuifK9pSoZSj8asz60-8" value="" style="edgeStyle=orthogonalEdgeStyle;rounded=0;orthogonalLoop=1;jettySize=auto;html=1;dashed=1;endArrow=none;endFill=0;exitX=0.5;exitY=1;exitDx=0;exitDy=0;" parent="1" edge="1">
          <mxGeometry relative="1" as="geometry">
            <mxPoint x="290" y="400" as="targetPoint" />
            <mxPoint x="290" y="136" as="sourcePoint" />
            <Array as="points">
              <mxPoint x="290" y="260" />
              <mxPoint x="290" y="260" />
            </Array>
          </mxGeometry>
        </mxCell>
        <mxCell id="mCKuifK9pSoZSj8asz60-9" value="" style="html=1;points=[[0,0,0,0,5],[0,1,0,0,-5],[1,0,0,0,5],[1,1,0,0,-5]];perimeter=orthogonalPerimeter;outlineConnect=0;targetShapes=umlLifeline;portConstraint=eastwest;newEdgeStyle={&quot;curved&quot;:0,&quot;rounded&quot;:0};" parent="1" vertex="1">
          <mxGeometry x="285" y="210" width="10" height="50" as="geometry" />
        </mxCell>
        <mxCell id="_Kd45QQ9P5K5pmmJC9rL-1" value="" style="html=1;verticalAlign=bottom;endArrow=open;dashed=1;endSize=8;curved=0;rounded=0;" edge="1" parent="1">
          <mxGeometry relative="1" as="geometry">
            <mxPoint x="80" y="250" as="targetPoint" />
            <mxPoint x="285" y="250" as="sourcePoint" />
          </mxGeometry>
        </mxCell>
      </root>
    </mxGraphModel>
  </diagram>
  <diagram name="Encounter Knowledge" id="dKXVjFSks01nORZwe0Oq">
    <mxGraphModel dx="1568" dy="797" grid="1" gridSize="10" guides="1" tooltips="1" connect="1" arrows="1" fold="1" page="1" pageScale="1" pageWidth="1169" pageHeight="827" math="0" shadow="0">
      <root>
        <mxCell id="5QnwjZsneoWGY2_aBl7V-0" />
        <mxCell id="5QnwjZsneoWGY2_aBl7V-1" parent="5QnwjZsneoWGY2_aBl7V-0" />
        <mxCell id="593H2VnMmC3GUFmpOZyy-49" style="edgeStyle=orthogonalEdgeStyle;rounded=0;orthogonalLoop=1;jettySize=auto;html=1;dashed=1;endArrow=none;endFill=0;exitX=0.5;exitY=1;exitDx=0;exitDy=0;" parent="5QnwjZsneoWGY2_aBl7V-1" source="593H2VnMmC3GUFmpOZyy-57" edge="1">
          <mxGeometry relative="1" as="geometry">
            <mxPoint x="525" y="760" as="targetPoint" />
            <mxPoint x="524.5" y="78" as="sourcePoint" />
          </mxGeometry>
        </mxCell>
        <mxCell id="593H2VnMmC3GUFmpOZyy-50" value=":Board" style="html=1;whiteSpace=wrap;fontStyle=4;fontSize=17;horizontal=1;" parent="5QnwjZsneoWGY2_aBl7V-1" vertex="1">
          <mxGeometry x="265" y="48" width="100" height="30" as="geometry" />
        </mxCell>
        <mxCell id="593H2VnMmC3GUFmpOZyy-51" style="edgeStyle=orthogonalEdgeStyle;rounded=0;orthogonalLoop=1;jettySize=auto;html=1;dashed=1;endArrow=none;endFill=0;exitX=0.5;exitY=1;exitDx=0;exitDy=0;" parent="5QnwjZsneoWGY2_aBl7V-1" edge="1">
          <mxGeometry relative="1" as="geometry">
            <mxPoint x="315" y="760" as="targetPoint" />
            <mxPoint x="315" y="96" as="sourcePoint" />
            <Array as="points">
              <mxPoint x="315" y="386" />
            </Array>
          </mxGeometry>
        </mxCell>
        <mxCell id="593H2VnMmC3GUFmpOZyy-52" value="return Knowledge Square" style="html=1;verticalAlign=bottom;endArrow=open;dashed=1;endSize=8;curved=0;rounded=0;" parent="5QnwjZsneoWGY2_aBl7V-1" source="593H2VnMmC3GUFmpOZyy-54" edge="1">
          <mxGeometry relative="1" as="geometry">
            <mxPoint x="105" y="240" as="targetPoint" />
            <mxPoint x="315" y="436" as="sourcePoint" />
          </mxGeometry>
        </mxCell>
        <mxCell id="593H2VnMmC3GUFmpOZyy-53" value="" style="edgeStyle=orthogonalEdgeStyle;rounded=0;orthogonalLoop=1;jettySize=auto;html=1;dashed=1;endArrow=none;endFill=0;exitX=0.5;exitY=1;exitDx=0;exitDy=0;" parent="5QnwjZsneoWGY2_aBl7V-1" source="593H2VnMmC3GUFmpOZyy-50" target="593H2VnMmC3GUFmpOZyy-54" edge="1">
          <mxGeometry relative="1" as="geometry">
            <mxPoint x="315" y="296" as="targetPoint" />
            <mxPoint x="315" y="36" as="sourcePoint" />
            <Array as="points">
              <mxPoint x="315" y="186" />
              <mxPoint x="315" y="186" />
            </Array>
          </mxGeometry>
        </mxCell>
        <mxCell id="593H2VnMmC3GUFmpOZyy-54" value="" style="html=1;points=[[0,0,0,0,5],[0,1,0,0,-5],[1,0,0,0,5],[1,1,0,0,-5]];perimeter=orthogonalPerimeter;outlineConnect=0;targetShapes=umlLifeline;portConstraint=eastwest;newEdgeStyle={&quot;curved&quot;:0,&quot;rounded&quot;:0};" parent="5QnwjZsneoWGY2_aBl7V-1" vertex="1">
          <mxGeometry x="310" y="170" width="10" height="70" as="geometry" />
        </mxCell>
        <mxCell id="593H2VnMmC3GUFmpOZyy-55" value="" style="html=1;points=[[0,0,0,0,5],[0,1,0,0,-5],[1,0,0,0,5],[1,1,0,0,-5]];perimeter=orthogonalPerimeter;outlineConnect=0;targetShapes=umlLifeline;portConstraint=eastwest;newEdgeStyle={&quot;curved&quot;:0,&quot;rounded&quot;:0};" parent="5QnwjZsneoWGY2_aBl7V-1" vertex="1">
          <mxGeometry x="520" y="260" width="10" height="390" as="geometry" />
        </mxCell>
        <mxCell id="593H2VnMmC3GUFmpOZyy-56" value="activateSquareEffect()" style="html=1;verticalAlign=bottom;endArrow=block;curved=0;rounded=0;" parent="5QnwjZsneoWGY2_aBl7V-1" edge="1">
          <mxGeometry x="-0.0001" width="80" relative="1" as="geometry">
            <mxPoint x="105" y="270.39" as="sourcePoint" />
            <mxPoint x="520" y="270.39" as="targetPoint" />
            <mxPoint as="offset" />
          </mxGeometry>
        </mxCell>
        <mxCell id="593H2VnMmC3GUFmpOZyy-57" value=":Knowledge" style="html=1;whiteSpace=wrap;fontStyle=4;fontSize=17;horizontal=1;" parent="5QnwjZsneoWGY2_aBl7V-1" vertex="1">
          <mxGeometry x="475" y="48" width="100" height="30" as="geometry" />
        </mxCell>
        <mxCell id="593H2VnMmC3GUFmpOZyy-58" value=":Player" style="shape=umlActor;verticalLabelPosition=bottom;verticalAlign=top;html=1;outlineConnect=0;" parent="5QnwjZsneoWGY2_aBl7V-1" vertex="1">
          <mxGeometry x="685" y="40" width="60" height="126" as="geometry" />
        </mxCell>
        <mxCell id="593H2VnMmC3GUFmpOZyy-59" value="" style="edgeStyle=orthogonalEdgeStyle;rounded=0;orthogonalLoop=1;jettySize=auto;html=1;dashed=1;endArrow=none;endFill=0;" parent="5QnwjZsneoWGY2_aBl7V-1" edge="1">
          <mxGeometry relative="1" as="geometry">
            <mxPoint x="715" y="760" as="targetPoint" />
            <mxPoint x="714.6599999999999" y="409.97" as="sourcePoint" />
            <Array as="points">
              <mxPoint x="714.6599999999999" y="189.97" />
              <mxPoint x="714.6599999999999" y="189.97" />
            </Array>
          </mxGeometry>
        </mxCell>
        <mxCell id="593H2VnMmC3GUFmpOZyy-60" value="Player confirms action" style="html=1;verticalAlign=bottom;endArrow=block;curved=0;rounded=0;fontColor=#000000;" parent="5QnwjZsneoWGY2_aBl7V-1" target="593H2VnMmC3GUFmpOZyy-64" edge="1">
          <mxGeometry x="-0.0038" width="80" relative="1" as="geometry">
            <mxPoint x="530" y="440" as="sourcePoint" />
            <mxPoint x="695" y="440" as="targetPoint" />
            <mxPoint as="offset" />
          </mxGeometry>
        </mxCell>
        <mxCell id="593H2VnMmC3GUFmpOZyy-61" value="" style="edgeStyle=orthogonalEdgeStyle;rounded=0;orthogonalLoop=1;jettySize=auto;html=1;dashed=1;endArrow=none;endFill=0;exitX=0.497;exitY=0.946;exitDx=0;exitDy=0;exitPerimeter=0;" parent="5QnwjZsneoWGY2_aBl7V-1" source="593H2VnMmC3GUFmpOZyy-70" edge="1">
          <mxGeometry relative="1" as="geometry">
            <mxPoint x="105" y="760" as="targetPoint" />
            <mxPoint x="105" y="80" as="sourcePoint" />
            <Array as="points">
              <mxPoint x="105" y="340" />
              <mxPoint x="105" y="340" />
            </Array>
          </mxGeometry>
        </mxCell>
        <mxCell id="593H2VnMmC3GUFmpOZyy-62" value="askQuestion(question)" style="html=1;align=left;spacingLeft=2;endArrow=block;rounded=0;edgeStyle=orthogonalEdgeStyle;curved=0;rounded=0;fontColor=#000000;" parent="5QnwjZsneoWGY2_aBl7V-1" target="593H2VnMmC3GUFmpOZyy-55" edge="1">
          <mxGeometry relative="1" as="geometry">
            <mxPoint x="530" y="380" as="sourcePoint" />
            <Array as="points">
              <mxPoint x="565" y="380" />
              <mxPoint x="565" y="400" />
            </Array>
            <mxPoint x="535" y="400" as="targetPoint" />
          </mxGeometry>
        </mxCell>
        <mxCell id="593H2VnMmC3GUFmpOZyy-63" value="return String answer" style="html=1;verticalAlign=bottom;endArrow=open;dashed=1;endSize=8;curved=0;rounded=0;" parent="5QnwjZsneoWGY2_aBl7V-1" edge="1">
          <mxGeometry relative="1" as="geometry">
            <mxPoint x="530" y="480" as="targetPoint" />
            <mxPoint x="710" y="480" as="sourcePoint" />
          </mxGeometry>
        </mxCell>
        <mxCell id="593H2VnMmC3GUFmpOZyy-64" value="" style="html=1;points=[[0,0,0,0,5],[0,1,0,0,-5],[1,0,0,0,5],[1,1,0,0,-5]];perimeter=orthogonalPerimeter;outlineConnect=0;targetShapes=umlLifeline;portConstraint=eastwest;newEdgeStyle={&quot;curved&quot;:0,&quot;rounded&quot;:0};" parent="5QnwjZsneoWGY2_aBl7V-1" vertex="1">
          <mxGeometry x="710" y="440" width="10" height="40" as="geometry" />
        </mxCell>
        <mxCell id="593H2VnMmC3GUFmpOZyy-65" value="getSquareAt(index)" style="html=1;verticalAlign=bottom;endArrow=block;curved=0;rounded=0;" parent="5QnwjZsneoWGY2_aBl7V-1" target="593H2VnMmC3GUFmpOZyy-54" edge="1">
          <mxGeometry x="-0.0001" width="80" relative="1" as="geometry">
            <mxPoint x="105" y="170" as="sourcePoint" />
            <mxPoint x="305" y="170" as="targetPoint" />
            <mxPoint as="offset" />
          </mxGeometry>
        </mxCell>
        <mxCell id="593H2VnMmC3GUFmpOZyy-66" value="" style="html=1;points=[[0,0,0,0,5],[0,1,0,0,-5],[1,0,0,0,5],[1,1,0,0,-5]];perimeter=orthogonalPerimeter;outlineConnect=0;targetShapes=umlLifeline;portConstraint=eastwest;newEdgeStyle={&quot;curved&quot;:0,&quot;rounded&quot;:0};" parent="5QnwjZsneoWGY2_aBl7V-1" vertex="1">
          <mxGeometry x="525" y="300" width="10" height="30" as="geometry" />
        </mxCell>
        <mxCell id="593H2VnMmC3GUFmpOZyy-67" value="getRandomQuestion()" style="html=1;align=left;spacingLeft=2;endArrow=block;rounded=0;edgeStyle=orthogonalEdgeStyle;curved=0;rounded=0;fontColor=#000000;" parent="5QnwjZsneoWGY2_aBl7V-1" edge="1">
          <mxGeometry x="0.1995" relative="1" as="geometry">
            <mxPoint x="530" y="270" as="sourcePoint" />
            <Array as="points">
              <mxPoint x="530" y="280" />
              <mxPoint x="565" y="280" />
              <mxPoint x="565" y="300" />
            </Array>
            <mxPoint x="535" y="300" as="targetPoint" />
            <mxPoint as="offset" />
          </mxGeometry>
        </mxCell>
        <mxCell id="593H2VnMmC3GUFmpOZyy-68" value="return question" style="html=1;align=left;spacingLeft=2;endArrow=open;rounded=0;edgeStyle=orthogonalEdgeStyle;curved=0;rounded=0;fontColor=#000000;dashed=1;endFill=0;" parent="5QnwjZsneoWGY2_aBl7V-1" edge="1">
          <mxGeometry x="-0.0672" relative="1" as="geometry">
            <mxPoint x="535" y="330" as="sourcePoint" />
            <Array as="points">
              <mxPoint x="565" y="330" />
              <mxPoint x="565" y="350" />
            </Array>
            <mxPoint x="530" y="350.0181818181818" as="targetPoint" />
            <mxPoint as="offset" />
          </mxGeometry>
        </mxCell>
        <mxCell id="593H2VnMmC3GUFmpOZyy-69" value="return true" style="html=1;verticalAlign=bottom;endArrow=open;dashed=1;endSize=8;curved=0;rounded=0;fontColor=#000000;" parent="5QnwjZsneoWGY2_aBl7V-1" edge="1">
          <mxGeometry relative="1" as="geometry">
            <mxPoint x="105" y="640" as="targetPoint" />
            <mxPoint x="520" y="640" as="sourcePoint" />
          </mxGeometry>
        </mxCell>
        <mxCell id="593H2VnMmC3GUFmpOZyy-70" value=":GameSystem" style="html=1;whiteSpace=wrap;fontStyle=4;fontSize=17;horizontal=1;" parent="5QnwjZsneoWGY2_aBl7V-1" vertex="1">
          <mxGeometry x="40" y="48" width="130" height="30" as="geometry" />
        </mxCell>
        <mxCell id="g94803-Pd4ojMzWBehqb-0" style="edgeStyle=orthogonalEdgeStyle;rounded=0;orthogonalLoop=1;jettySize=auto;html=1;dashed=1;endArrow=none;endFill=0;exitX=0.5;exitY=1;exitDx=0;exitDy=0;" parent="5QnwjZsneoWGY2_aBl7V-1" source="g94803-Pd4ojMzWBehqb-2" edge="1">
          <mxGeometry relative="1" as="geometry">
            <mxPoint x="870" y="760" as="targetPoint" />
            <mxPoint x="869.5" y="78" as="sourcePoint" />
          </mxGeometry>
        </mxCell>
        <mxCell id="g94803-Pd4ojMzWBehqb-1" value=":Player" style="html=1;whiteSpace=wrap;fontStyle=4;fontSize=17;horizontal=1;" parent="5QnwjZsneoWGY2_aBl7V-1" vertex="1">
          <mxGeometry x="820" y="48" width="100" height="30" as="geometry" />
        </mxCell>
        <mxCell id="g94803-Pd4ojMzWBehqb-3" value="" style="edgeStyle=orthogonalEdgeStyle;rounded=0;orthogonalLoop=1;jettySize=auto;html=1;dashed=1;endArrow=none;endFill=0;exitX=0.5;exitY=1;exitDx=0;exitDy=0;" parent="5QnwjZsneoWGY2_aBl7V-1" source="g94803-Pd4ojMzWBehqb-1" target="g94803-Pd4ojMzWBehqb-2" edge="1">
          <mxGeometry relative="1" as="geometry">
            <mxPoint x="870" y="760" as="targetPoint" />
            <mxPoint x="870" y="78" as="sourcePoint" />
            <Array as="points">
              <mxPoint x="870" y="440" />
              <mxPoint x="870" y="440" />
            </Array>
          </mxGeometry>
        </mxCell>
        <mxCell id="g94803-Pd4ojMzWBehqb-2" value="" style="html=1;points=[[0,0,0,0,5],[0,1,0,0,-5],[1,0,0,0,5],[1,1,0,0,-5]];perimeter=orthogonalPerimeter;outlineConnect=0;targetShapes=umlLifeline;portConstraint=eastwest;newEdgeStyle={&quot;curved&quot;:0,&quot;rounded&quot;:0};" parent="5QnwjZsneoWGY2_aBl7V-1" vertex="1">
          <mxGeometry x="865" y="550" width="10" height="30" as="geometry" />
        </mxCell>
        <mxCell id="g94803-Pd4ojMzWBehqb-8" value="isAnswerCorrect(answer)" style="html=1;align=left;spacingLeft=2;endArrow=block;rounded=0;edgeStyle=orthogonalEdgeStyle;curved=0;rounded=0;fontColor=#000000;" parent="5QnwjZsneoWGY2_aBl7V-1" edge="1">
          <mxGeometry relative="1" as="geometry">
            <mxPoint x="530" y="519.94" as="sourcePoint" />
            <Array as="points">
              <mxPoint x="565" y="519.94" />
              <mxPoint x="565" y="539.94" />
            </Array>
            <mxPoint x="535" y="539.9744827586208" as="targetPoint" />
          </mxGeometry>
        </mxCell>
        <mxCell id="g94803-Pd4ojMzWBehqb-9" value="" style="html=1;points=[[0,0,0,0,5],[0,1,0,0,-5],[1,0,0,0,5],[1,1,0,0,-5]];perimeter=orthogonalPerimeter;outlineConnect=0;targetShapes=umlLifeline;portConstraint=eastwest;newEdgeStyle={&quot;curved&quot;:0,&quot;rounded&quot;:0};" parent="5QnwjZsneoWGY2_aBl7V-1" vertex="1">
          <mxGeometry x="525" y="530" width="10" height="70" as="geometry" />
        </mxCell>
        <mxCell id="g94803-Pd4ojMzWBehqb-10" value="changeKnowledgeBy(int)" style="html=1;verticalAlign=bottom;endArrow=block;curved=0;rounded=0;fontColor=#000000;" parent="5QnwjZsneoWGY2_aBl7V-1" edge="1">
          <mxGeometry x="-0.0038" width="80" relative="1" as="geometry">
            <mxPoint x="535" y="554.66" as="sourcePoint" />
            <mxPoint x="865" y="554.66" as="targetPoint" />
            <mxPoint as="offset" />
          </mxGeometry>
        </mxCell>
        <mxCell id="g94803-Pd4ojMzWBehqb-11" value="" style="html=1;verticalAlign=bottom;endArrow=open;dashed=1;endSize=8;curved=0;rounded=0;" parent="5QnwjZsneoWGY2_aBl7V-1" edge="1">
          <mxGeometry relative="1" as="geometry">
            <mxPoint x="535" y="574.66" as="targetPoint" />
            <mxPoint x="865" y="574.66" as="sourcePoint" />
          </mxGeometry>
        </mxCell>
        <mxCell id="g94803-Pd4ojMzWBehqb-12" value="" style="html=1;align=left;spacingLeft=2;endArrow=open;rounded=0;edgeStyle=orthogonalEdgeStyle;curved=0;rounded=0;fontColor=#000000;dashed=1;endFill=0;" parent="5QnwjZsneoWGY2_aBl7V-1" edge="1">
          <mxGeometry x="-0.0672" relative="1" as="geometry">
            <mxPoint x="535" y="590" as="sourcePoint" />
            <Array as="points">
              <mxPoint x="565" y="590" />
              <mxPoint x="565" y="610" />
            </Array>
            <mxPoint x="530" y="610.0181818181818" as="targetPoint" />
            <mxPoint as="offset" />
          </mxGeometry>
        </mxCell>
      </root>
    </mxGraphModel>
  </diagram>
</mxfile>
